<mxfile host="app.diagrams.net" agent="Mozilla/5.0 (Windows NT 10.0; Win64; x64) AppleWebKit/537.36 (KHTML, like Gecko) Chrome/138.0.0.0 Safari/537.36" version="28.0.7">
  <diagram name="Page-1" id="mT09FSYQoGo-mqXf3SXr">
    <mxGraphModel dx="1892" dy="1662" grid="1" gridSize="10" guides="1" tooltips="1" connect="1" arrows="1" fold="1" page="1" pageScale="1" pageWidth="850" pageHeight="1100" math="0" shadow="0">
      <root>
        <mxCell id="0" />
        <mxCell id="1" parent="0" />
        <mxCell id="ds19_SRFEy7OwHXJE9gr-4" value="SELECT LOCATION" style="ellipse;whiteSpace=wrap;html=1;aspect=fixed;labelBackgroundColor=none;fillColor=#e6d0de;strokeColor=#996185;gradientColor=#d5739d;" vertex="1" parent="1">
          <mxGeometry x="260" y="-175" width="105" height="105" as="geometry" />
        </mxCell>
        <mxCell id="ds19_SRFEy7OwHXJE9gr-5" value="SELECT RESTAURANT" style="ellipse;whiteSpace=wrap;html=1;aspect=fixed;labelBackgroundColor=none;fillColor=#e6d0de;strokeColor=#996185;gradientColor=#d5739d;" vertex="1" parent="1">
          <mxGeometry x="460" y="-175" width="100" height="100" as="geometry" />
        </mxCell>
        <mxCell id="ds19_SRFEy7OwHXJE9gr-6" value="SELECT FOOD" style="ellipse;whiteSpace=wrap;html=1;aspect=fixed;labelBackgroundColor=none;fillColor=#e6d0de;strokeColor=#996185;gradientColor=#d5739d;" vertex="1" parent="1">
          <mxGeometry x="650" y="-180" width="100" height="100" as="geometry" />
        </mxCell>
        <mxCell id="ds19_SRFEy7OwHXJE9gr-7" value="CUSTOMER" style="ellipse;whiteSpace=wrap;html=1;aspect=fixed;labelBackgroundColor=none;fillColor=#e6d0de;strokeColor=#996185;gradientColor=#d5739d;" vertex="1" parent="1">
          <mxGeometry x="-100" y="-170" width="100" height="100" as="geometry" />
        </mxCell>
        <mxCell id="ds19_SRFEy7OwHXJE9gr-8" value="MAKE PAYMENT" style="ellipse;whiteSpace=wrap;html=1;aspect=fixed;labelBackgroundColor=none;fillColor=#e6d0de;strokeColor=#996185;gradientColor=#d5739d;" vertex="1" parent="1">
          <mxGeometry x="810" y="-177.5" width="97.5" height="97.5" as="geometry" />
        </mxCell>
        <mxCell id="ds19_SRFEy7OwHXJE9gr-9" value="ORDER PLACED" style="ellipse;whiteSpace=wrap;html=1;aspect=fixed;labelBackgroundColor=none;fillColor=#e6d0de;strokeColor=#996185;gradientColor=#d5739d;" vertex="1" parent="1">
          <mxGeometry x="950" y="-175" width="100" height="100" as="geometry" />
        </mxCell>
        <mxCell id="ds19_SRFEy7OwHXJE9gr-10" value="LOGIN/SIGNUP" style="ellipse;whiteSpace=wrap;html=1;aspect=fixed;labelBackgroundColor=none;fillColor=#e6d0de;strokeColor=#996185;gradientColor=#d5739d;" vertex="1" parent="1">
          <mxGeometry x="70" y="-175" width="100" height="100" as="geometry" />
        </mxCell>
        <mxCell id="ds19_SRFEy7OwHXJE9gr-12" value="TRACKLOCATION OF YOUR FOOD" style="ellipse;whiteSpace=wrap;html=1;aspect=fixed;strokeColor=#6c8ebf;fillColor=#dae8fc;gradientColor=#7ea6e0;" vertex="1" parent="1">
          <mxGeometry x="960" y="40" width="110" height="110" as="geometry" />
        </mxCell>
        <mxCell id="ds19_SRFEy7OwHXJE9gr-13" value="FOOD DELIVERED" style="ellipse;whiteSpace=wrap;html=1;aspect=fixed;strokeColor=#6c8ebf;fillColor=#dae8fc;gradientColor=#7ea6e0;" vertex="1" parent="1">
          <mxGeometry x="780" y="42.5" width="110" height="110" as="geometry" />
        </mxCell>
        <mxCell id="ds19_SRFEy7OwHXJE9gr-14" value="RATING&amp;nbsp;&lt;div&gt;&amp;amp;&lt;/div&gt;&lt;div&gt;REVIEW&lt;/div&gt;" style="ellipse;whiteSpace=wrap;html=1;aspect=fixed;strokeColor=#6c8ebf;fillColor=#dae8fc;gradientColor=#7ea6e0;" vertex="1" parent="1">
          <mxGeometry x="600" y="42.5" width="105" height="105" as="geometry" />
        </mxCell>
        <mxCell id="ds19_SRFEy7OwHXJE9gr-15" value="" style="endArrow=classic;html=1;rounded=0;strokeColor=#0B4D6A;exitX=1;exitY=0.5;exitDx=0;exitDy=0;" edge="1" parent="1" source="ds19_SRFEy7OwHXJE9gr-7">
          <mxGeometry width="50" height="50" relative="1" as="geometry">
            <mxPoint x="340" y="120" as="sourcePoint" />
            <mxPoint x="70" y="-120" as="targetPoint" />
          </mxGeometry>
        </mxCell>
        <mxCell id="ds19_SRFEy7OwHXJE9gr-16" value="" style="endArrow=classic;html=1;rounded=0;strokeColor=#0B4D6A;exitX=1;exitY=0.5;exitDx=0;exitDy=0;entryX=0;entryY=0.5;entryDx=0;entryDy=0;" edge="1" parent="1" source="ds19_SRFEy7OwHXJE9gr-10" target="ds19_SRFEy7OwHXJE9gr-4">
          <mxGeometry width="50" height="50" relative="1" as="geometry">
            <mxPoint x="340" y="120" as="sourcePoint" />
            <mxPoint x="390" y="70" as="targetPoint" />
          </mxGeometry>
        </mxCell>
        <mxCell id="ds19_SRFEy7OwHXJE9gr-17" value="" style="endArrow=classic;html=1;rounded=0;strokeColor=#0B4D6A;exitX=1;exitY=0.5;exitDx=0;exitDy=0;entryX=0;entryY=0.5;entryDx=0;entryDy=0;" edge="1" parent="1" source="ds19_SRFEy7OwHXJE9gr-4" target="ds19_SRFEy7OwHXJE9gr-5">
          <mxGeometry width="50" height="50" relative="1" as="geometry">
            <mxPoint x="340" y="120" as="sourcePoint" />
            <mxPoint x="390" y="70" as="targetPoint" />
          </mxGeometry>
        </mxCell>
        <mxCell id="ds19_SRFEy7OwHXJE9gr-18" value="" style="endArrow=classic;html=1;rounded=0;strokeColor=#0B4D6A;exitX=1;exitY=0.5;exitDx=0;exitDy=0;entryX=0.02;entryY=0.57;entryDx=0;entryDy=0;entryPerimeter=0;" edge="1" parent="1" source="ds19_SRFEy7OwHXJE9gr-5" target="ds19_SRFEy7OwHXJE9gr-6">
          <mxGeometry width="50" height="50" relative="1" as="geometry">
            <mxPoint x="340" y="120" as="sourcePoint" />
            <mxPoint x="390" y="70" as="targetPoint" />
          </mxGeometry>
        </mxCell>
        <mxCell id="ds19_SRFEy7OwHXJE9gr-19" value="" style="endArrow=classic;html=1;rounded=0;strokeColor=#0B4D6A;exitX=1;exitY=0.5;exitDx=0;exitDy=0;" edge="1" parent="1" source="ds19_SRFEy7OwHXJE9gr-6" target="ds19_SRFEy7OwHXJE9gr-8">
          <mxGeometry width="50" height="50" relative="1" as="geometry">
            <mxPoint x="340" y="110" as="sourcePoint" />
            <mxPoint x="390" y="60" as="targetPoint" />
          </mxGeometry>
        </mxCell>
        <mxCell id="ds19_SRFEy7OwHXJE9gr-20" value="" style="endArrow=classic;html=1;rounded=0;strokeColor=#0B4D6A;exitX=1;exitY=0.5;exitDx=0;exitDy=0;" edge="1" parent="1" source="ds19_SRFEy7OwHXJE9gr-8" target="ds19_SRFEy7OwHXJE9gr-9">
          <mxGeometry width="50" height="50" relative="1" as="geometry">
            <mxPoint x="650" y="-60" as="sourcePoint" />
            <mxPoint x="700" y="-110" as="targetPoint" />
          </mxGeometry>
        </mxCell>
        <mxCell id="ds19_SRFEy7OwHXJE9gr-21" value="" style="endArrow=classic;html=1;rounded=0;strokeColor=#0B4D6A;exitX=0.5;exitY=1;exitDx=0;exitDy=0;entryX=0.371;entryY=0.024;entryDx=0;entryDy=0;entryPerimeter=0;" edge="1" parent="1" source="ds19_SRFEy7OwHXJE9gr-9" target="ds19_SRFEy7OwHXJE9gr-12">
          <mxGeometry width="50" height="50" relative="1" as="geometry">
            <mxPoint x="650" y="-60" as="sourcePoint" />
            <mxPoint x="700" y="-110" as="targetPoint" />
          </mxGeometry>
        </mxCell>
        <mxCell id="ds19_SRFEy7OwHXJE9gr-22" value="" style="endArrow=classic;html=1;rounded=0;strokeColor=#0B4D6A;" edge="1" parent="1" source="ds19_SRFEy7OwHXJE9gr-12" target="ds19_SRFEy7OwHXJE9gr-13">
          <mxGeometry width="50" height="50" relative="1" as="geometry">
            <mxPoint x="650" y="-60" as="sourcePoint" />
            <mxPoint x="700" y="-110" as="targetPoint" />
          </mxGeometry>
        </mxCell>
        <mxCell id="ds19_SRFEy7OwHXJE9gr-23" value="" style="endArrow=classic;html=1;rounded=0;strokeColor=#0B4D6A;exitX=0.022;exitY=0.575;exitDx=0;exitDy=0;exitPerimeter=0;entryX=0.96;entryY=0.603;entryDx=0;entryDy=0;entryPerimeter=0;" edge="1" parent="1" source="ds19_SRFEy7OwHXJE9gr-13" target="ds19_SRFEy7OwHXJE9gr-14">
          <mxGeometry width="50" height="50" relative="1" as="geometry">
            <mxPoint x="770" y="110" as="sourcePoint" />
            <mxPoint x="700" y="-110" as="targetPoint" />
          </mxGeometry>
        </mxCell>
        <mxCell id="ds19_SRFEy7OwHXJE9gr-24" value="&lt;font style=&quot;font-size: 15px;&quot;&gt;SWIGGY DELIVERY APP&lt;/font&gt;" style="rounded=0;whiteSpace=wrap;html=1;strokeColor=#82b366;fillColor=#d5e8d4;gradientColor=#97d077;" vertex="1" parent="1">
          <mxGeometry x="395" y="-20" width="310" height="60" as="geometry" />
        </mxCell>
      </root>
    </mxGraphModel>
  </diagram>
</mxfile>
